HIERARCHY
ROOT hip
{
  OFFSET 0 0 0
  CHANNELS 6 Xposition Yposition Zposition Zrotation Yrotation Xrotation
  JOINT abdomen
  {
    OFFSET 0 20.6881 -0.73152
    CHANNELS 3 Zrotation Xrotation Yrotation
    JOINT chest
    {
      OFFSET 0 11.7043 -0.48768
      CHANNELS 3 Zrotation Xrotation Yrotation
      JOINT neck
      {
        OFFSET 0 22.1894 -2.19456
        CHANNELS 3 Zrotation Xrotation Yrotation
        JOINT head
        {
          OFFSET -0.24384 7.07133 1.2192
          CHANNELS 3 Zrotation Xrotation Yrotation
          JOINT leftEye
          {
            OFFSET 4.14528 8.04674 8.04672
            CHANNELS 3 Zrotation Xrotation Yrotation
            End Site
            {
              OFFSET 1 0 0
            }
          }
          JOINT rightEye
          {
            OFFSET -3.6576 8.04674 8.04672
            CHANNELS 3 Zrotation Xrotation Yrotation
            End Site
            {
              OFFSET 1 0 0
            }
          }
        }
      }
      JOINT rCollar
      {
        OFFSET -2.68224 19.2634 -4.8768
        CHANNELS 3 Zrotation Xrotation Yrotation
        JOINT rShldr
        {
          OFFSET -8.77824 -1.95073 1.46304
          CHANNELS 3 Zrotation Xrotation Yrotation
          JOINT rForeArm
          {
            OFFSET -28.1742 -1.7115 0.48768
            CHANNELS 3 Zrotation Xrotation Yrotation
            JOINT rHand
            {
              OFFSET -22.5879 0.773209 7.07136
              CHANNELS 3 Zrotation Xrotation Yrotation
              JOINT rThumb1
              {
                OFFSET -1.2192 -0.487915 3.41376
                CHANNELS 3 Zrotation Xrotation Yrotation
                JOINT rThumb2
                {
                  OFFSET -3.37035 -0.52449 3.41376
                  CHANNELS 3 Zrotation Xrotation Yrotation
                  End Site
                  {
                    OFFSET -1.78271 -1.18214 1.43049
                  }
                }
              }
              JOINT rIndex1
              {
                OFFSET -7.75947 0.938293 5.60832
                CHANNELS 3 Zrotation Xrotation Yrotation
                JOINT rIndex2
                {
                  OFFSET -2.54057 -0.884171 1.56538
                  CHANNELS 3 Zrotation Xrotation Yrotation
                  End Site
                  {
                    OFFSET -1.62519 -0.234802 1.16502
                  }
                }
              }
              JOINT rMid1
              {
                OFFSET -8.24714 1.18213 3.41376
                CHANNELS 3 Zrotation Xrotation Yrotation
                JOINT rMid2
                {
                  OFFSET -3.10165 -0.590103 1.0647
                  CHANNELS 3 Zrotation Xrotation Yrotation
                  End Site
                  {
                    OFFSET -2.48547 -0.328903 0.83742
                  }
                }
              }
              JOINT rRing1
              {
                OFFSET -8.82822 0.546677 1.51678
                CHANNELS 3 Zrotation Xrotation Yrotation
                JOINT rRing2
                {
                  OFFSET -2.60934 -0.819778 -0.0198488
                  CHANNELS 3 Zrotation Xrotation Yrotation
                  End Site
                  {
                    OFFSET -2.33842 -0.294052 0.168128
                  }
                }
              }
              JOINT rPinky1
              {
                OFFSET -8.27202 -0.0477905 -0.4584
                CHANNELS 3 Zrotation Xrotation Yrotation
                JOINT rPinky2
                {
                  OFFSET -1.82734 -0.647385 -0.700984
                  CHANNELS 3 Zrotation Xrotation Yrotation
                  End Site
                  {
                    OFFSET -1.69225 -0.51767 -0.607171
                  }
                }
              }
            }
          }
        }
      }
      JOINT lCollar
      {
        OFFSET 2.68224 19.2634 -4.8768
        CHANNELS 3 Zrotation Xrotation Yrotation
        JOINT lShldr
        {
          OFFSET 8.77824 -1.95073 1.46304
          CHANNELS 3 Zrotation Xrotation Yrotation
          JOINT lForeArm
          {
            OFFSET 28.1742 -1.7115 0.48768
            CHANNELS 3 Zrotation Xrotation Yrotation
            JOINT lHand
            {
              OFFSET 22.5879 0.773209 7.07136
              CHANNELS 3 Zrotation Xrotation Yrotation
              JOINT lThumb1
              {
                OFFSET 1.2192 -0.487915 3.41376
                CHANNELS 3 Zrotation Xrotation Yrotation
                JOINT lThumb2
                {
                  OFFSET 3.37035 -0.52449 3.41376
                  CHANNELS 3 Zrotation Xrotation Yrotation
                  End Site
                  {
                    OFFSET 1.78271 -1.18214 1.43049
                  }
                }
              }
              JOINT lIndex1
              {
                OFFSET 7.75947 0.938293 5.60832
                CHANNELS 3 Zrotation Xrotation Yrotation
                JOINT lIndex2
                {
                  OFFSET 2.54057 -0.884171 1.56538
                  CHANNELS 3 Zrotation Xrotation Yrotation
                  End Site
                  {
                    OFFSET 1.62519 -0.234802 1.16502
                  }
                }
              }
              JOINT lMid1
              {
                OFFSET 8.24714 1.18213 3.41376
                CHANNELS 3 Zrotation Xrotation Yrotation
                JOINT lMid2
                {
                  OFFSET 3.10165 -0.590103 1.0647
                  CHANNELS 3 Zrotation Xrotation Yrotation
                  End Site
                  {
                    OFFSET 2.48547 -0.328903 0.83742
                  }
                }
              }
              JOINT lRing1
              {
                OFFSET 8.82822 0.546677 1.51678
                CHANNELS 3 Zrotation Xrotation Yrotation
                JOINT lRing2
                {
                  OFFSET 2.60934 -0.819778 -0.0198488
                  CHANNELS 3 Zrotation Xrotation Yrotation
                  End Site
                  {
                    OFFSET 2.33842 -0.294052 0.168128
                  }
                }
              }
              JOINT lPinky1
              {
                OFFSET 8.27202 -0.0477905 -0.4584
                CHANNELS 3 Zrotation Xrotation Yrotation
                JOINT lPinky2
                {
                  OFFSET 1.82734 -0.647385 -0.700984
                  CHANNELS 3 Zrotation Xrotation Yrotation
                  End Site
                  {
                    OFFSET 1.69225 -0.51767 -0.607171
                  }
                }
              }
            }
          }
        }
      }
    }
  }
  JOINT rButtock
  {
    OFFSET -8.77824 4.35084 1.2192
    CHANNELS 3 Zrotation Xrotation Yrotation
    JOINT rThigh
    {
      OFFSET 0 -1.70687 -2.19456
      CHANNELS 3 Zrotation Xrotation Yrotation
      JOINT rShin
      {
        OFFSET 0 -36.8199 0.73152
        CHANNELS 3 Zrotation Xrotation Yrotation
        JOINT rFoot
        {
          OFFSET 0.73152 -45.1104 -5.12064
          CHANNELS 3 Zrotation Xrotation Yrotation
          End Site
          {
            OFFSET -1.1221 -3.69964 12.103
          }
        }
      }
    }
  }
  JOINT lButtock
  {
    OFFSET 8.77824 4.35084 1.2192
    CHANNELS 3 Zrotation Xrotation Yrotation
    JOINT lThigh
    {
      OFFSET 0 -1.70687 -2.19456
      CHANNELS 3 Zrotation Xrotation Yrotation
      JOINT lShin
      {
        OFFSET 0 -36.8199 0.73152
        CHANNELS 3 Zrotation Xrotation Yrotation
        JOINT lFoot
        {
          OFFSET -0.73152 -45.1104 -5.12064
          CHANNELS 3 Zrotation Xrotation Yrotation
          End Site
          {
            OFFSET 1.1221 -3.69964 12.103
          }
        }
      }
    }
  }
}
MOTION
Frames:	4
Frame Time:	0.00833333
44.4084 85.4979 -35.8098 180.199 168.848 177.919 -2.17705 14.6027 -1.47205 3.23839 -5.93544 -0.228085 -14.8484 4.81414 -13.198 31.0116 5.33408 -24.8708 -0.0 0.0 0.0 -0.0 0.0 0.0 -3.21666e-14 1.65986e-14 2.5817e-13 65.8739 63.515 9.14076 -28.4023 -36.9697 78.6442 -1.00866 -27.269 -4.15454 -2.06296e-10 3.29149e-09 -1.05598e-09 -3.36073e-10 5.69741e-09 -1.82784e-09 -2.06296e-10 3.29149e-09 -1.05598e-09 7.73091 5.47488 0.417314 -2.06297e-10 3.2915e-09 -1.05598e-09 2.90554 0.965183 0.102902 -2.06288e-10 3.29149e-09 -1.05598e-09 10.2786 0.731801 0.0259123 -2.063e-10 3.29148e-09 -1.05597e-09 2.22167 -0.733487 -0.20892 -3.22709e-14 1.65973e-14 2.57926e-13 -62.7493 61.2456 -6.40232 28.3791 -37.3848 -79.3511 0.0638557 7.23612 -1.02237 5.64526e-10 -3.5061e-09 -2.17777e-10 9.69464e-10 -6.05326e-09 -3.78973e-10 5.64523e-10 -3.50608e-09 -2.17767e-10 -7.73091 5.47488 -0.417314 5.64528e-10 -3.50607e-09 -2.17783e-10 -2.90554 0.965183 -0.102902 5.64522e-10 -3.50608e-09 -2.17773e-10 -10.2786 0.731801 -0.0259123 5.64531e-10 -3.5061e-09 -2.1779e-10 -2.22167 -0.733487 0.20892 -2.03217e-16 0.0 -3.88251e-19 2.1433 -11.2797 -7.56028 -0.112832 27.8294 0.370296 -2.73007 -9.56532 -9.87817 2.03217e-16 0.0 3.88251e-19 12.7826 -14.5847 4.3636 0.590078 47.5925 -0.598621 -1.76825 13.1549 18.8961
44.0491 85.4802 -35.4 179.738 169.933 177.748 -1.7824 14.4637 -1.52991 3.11926 -5.87083 -0.232796 -14.8521 4.77547 -13.1223 30.9068 5.44822 -24.7477 -0.0 0.0 0.0 -0.0 0.0 0.0 -2.92587e-14 1.98777e-14 1.79801e-13 65.297 63.5118 9.51055 -28.4022 -36.9705 78.6453 -0.99202 -27.0713 -4.11909 -2.84901e-10 3.5725e-09 -1.15595e-09 -4.69762e-10 6.18895e-09 -2.0027e-09 -2.84902e-10 3.57251e-09 -1.15596e-09 7.73091 5.47488 0.417314 -2.84902e-10 3.57252e-09 -1.15595e-09 2.90554 0.965183 0.102902 -2.84894e-10 3.5725e-09 -1.15595e-09 10.2786 0.731801 0.0259123 -2.84906e-10 3.5725e-09 -1.15594e-09 2.22167 -0.733487 -0.20892 -2.93847e-14 1.98779e-14 1.79552e-13 -63.4409 61.2523 -5.89872 28.3789 -37.388 -79.3564 0.0747084 7.77442 -1.09945 5.71835e-10 -2.49231e-09 -7.42151e-11 9.83419e-10 -4.30388e-09 -1.30683e-10 5.71831e-10 -2.49229e-09 -7.42055e-11 -7.73091 5.47488 -0.417314 5.71838e-10 -2.49228e-09 -7.42214e-11 -2.90554 0.965183 -0.102902 5.71832e-10 -2.49229e-09 -7.42103e-11 -10.2786 0.731801 -0.0259123 5.71839e-10 -2.49231e-09 -7.42278e-11 -2.22167 -0.733487 0.20892 -2.03217e-16 0.0 -3.88251e-19 2.67801 -10.9231 -6.96004 -0.107601 27.6182 0.363028 -2.68202 -9.56843 -9.73456 2.03217e-16 0.0 3.88251e-19 12.9159 -15.0266 3.91533 0.618006 48.5588 -0.643323 -1.58822 13.3828 17.1347
43.7519 85.4673 -35.0069 179.536 170.817 177.621 -1.38182 14.3243 -1.55684 2.99442 -5.81683 -0.230228 -14.8529 4.78232 -13.0449 30.7925 5.51871 -24.6181 -0.0 0.0 0.0 -0.0 0.0 0.0 -2.63904e-14 1.57095e-14 1.52706e-13 65.1557 63.3988 9.45949 -28.4011 -36.9937 78.6848 -0.956499 -26.6372 -4.04186 -2.83939e-10 3.37567e-09 -1.0863e-09 -4.69955e-10 5.84936e-09 -1.88245e-09 -2.83939e-10 3.37568e-09 -1.0863e-09 7.73091 5.47488 0.417314 -2.8394e-10 3.37568e-09 -1.0863e-09 2.90554 0.965183 0.102902 -2.83932e-10 3.37567e-09 -1.0863e-09 10.2786 0.731801 0.0259123 -2.83945e-10 3.37567e-09 -1.08629e-09 2.22167 -0.733487 -0.20892 -2.64896e-14 1.57099e-14 1.52474e-13 -64.0756 61.3037 -5.48602 28.3797 -37.3759 -79.3357 0.0828947 8.16821 -1.15593 6.71326e-10 -2.65457e-09 -8.16437e-11 1.15579e-09 -4.58764e-09 -1.44121e-10 6.71322e-10 -2.65454e-09 -8.1633e-11 -7.73091 5.47488 -0.417314 6.71329e-10 -2.65454e-09 -8.1648e-11 -2.90554 0.965183 -0.102902 6.71322e-10 -2.65454e-09 -8.16391e-11 -10.2786 0.731801 -0.0259123 6.7133e-10 -2.65456e-09 -8.16561e-11 -2.22167 -0.733487 0.20892 -2.03217e-16 0.0 -3.88251e-19 3.24043 -10.6029 -6.26268 -0.103626 27.4665 0.359828 -2.66741 -9.63825 -9.66844 2.03217e-16 0.0 3.88251e-19 13.0324 -15.4935 3.47226 0.640481 49.4571 -0.704237 -1.18729 13.1998 14.4986
43.6048 85.4722 -34.5732 180.06 171.51 177.412 -0.974256 14.1837 -1.56628 2.86278 -5.76721 -0.224015 -14.8554 4.81864 -12.9666 30.6735 5.55989 -24.4834 -0.0 0.0 0.0 -0.0 0.0 0.0 -2.16348e-14 6.60941e-15 1.40715e-13 65.301 63.1992 9.133 -28.3992 -37.0315 78.7491 -0.909381 -26.0347 -3.93607 -2.34075e-10 2.7953e-09 -8.8028e-10 -3.88708e-10 4.84406e-09 -1.52546e-09 -2.34075e-10 2.79531e-09 -8.80292e-10 7.73091 5.47488 0.417314 -2.34076e-10 2.79531e-09 -8.8028e-10 2.90554 0.965183 0.102902 -2.34069e-10 2.7953e-09 -8.80279e-10 10.2786 0.731801 0.0259123 -2.34081e-10 2.7953e-09 -8.80269e-10 2.22167 -0.733487 -0.20892 -2.16769e-14 6.60944e-15 1.40513e-13 -64.652 61.3918 -5.15886 28.3813 -37.3506 -79.2925 0.0893579 8.48328 -1.20115 8.07426e-10 -3.25923e-09 -1.56223e-10 1.39124e-09 -5.63684e-09 -2.74e-10 8.07422e-10 -3.25922e-09 -1.5621e-10 -7.73091 5.47488 -0.417314 8.07428e-10 -3.25922e-09 -1.56224e-10 -2.90554 0.965183 -0.102902 8.0742e-10 -3.25922e-09 -1.56219e-10 -10.2786 0.731801 -0.0259123 8.07431e-10 -3.25924e-09 -1.56235e-10 -2.22167 -0.733487 0.20892 -2.03217e-16 0.0 -3.88251e-19 3.81506 -10.3121 -5.49988 -0.100511 27.3614 0.359739 -2.67721 -9.75189 -9.66099 2.03217e-16 0.0 3.88251e-19 13.1251 -15.9827 3.02695 0.660325 50.2962 -0.779328 -0.67252 12.64 11.1779
